<mxfile host="65bd71144e">
    <diagram id="z3IavdtONOHh5OoURY4x" name="Page-1">
        <mxGraphModel dx="1209" dy="761" grid="1" gridSize="10" guides="1" tooltips="1" connect="1" arrows="1" fold="1" page="1" pageScale="1" pageWidth="850" pageHeight="1100" math="0" shadow="0">
            <root>
                <mxCell id="0"/>
                <mxCell id="1" parent="0"/>
                <mxCell id="5UNgzyjXr-kjKphjb-yc-21" value="회원" style="whiteSpace=wrap;html=1;align=center;fontStyle=1;fontSize=30;" vertex="1" parent="1">
                    <mxGeometry x="150" y="80" width="160" height="80" as="geometry"/>
                </mxCell>
                <mxCell id="5UNgzyjXr-kjKphjb-yc-22" value="상품" style="whiteSpace=wrap;html=1;align=center;fontStyle=1;fontSize=30;" vertex="1" parent="1">
                    <mxGeometry x="520" y="80" width="160" height="80" as="geometry"/>
                </mxCell>
                <mxCell id="5UNgzyjXr-kjKphjb-yc-23" value="제조업체" style="whiteSpace=wrap;html=1;align=center;fontStyle=1;fontSize=30;" vertex="1" parent="1">
                    <mxGeometry x="520" y="380" width="160" height="80" as="geometry"/>
                </mxCell>
                <mxCell id="5UNgzyjXr-kjKphjb-yc-24" value="게시글" style="whiteSpace=wrap;html=1;align=center;fontStyle=1;fontSize=30;" vertex="1" parent="1">
                    <mxGeometry x="150" y="380" width="160" height="80" as="geometry"/>
                </mxCell>
                <mxCell id="5UNgzyjXr-kjKphjb-yc-25" value="이름" style="ellipse;whiteSpace=wrap;html=1;align=center;fontSize=20;" vertex="1" parent="1">
                    <mxGeometry y="40" width="100" height="40" as="geometry"/>
                </mxCell>
                <mxCell id="5UNgzyjXr-kjKphjb-yc-26" value="비밀번호" style="ellipse;whiteSpace=wrap;html=1;align=center;fontSize=20;" vertex="1" parent="1">
                    <mxGeometry y="120" width="100" height="40" as="geometry"/>
                </mxCell>
                <mxCell id="5UNgzyjXr-kjKphjb-yc-27" value="아이디" style="ellipse;whiteSpace=wrap;html=1;align=center;fontSize=20;" vertex="1" parent="1">
                    <mxGeometry y="200" width="100" height="40" as="geometry"/>
                </mxCell>
                <mxCell id="5UNgzyjXr-kjKphjb-yc-28" value="나이" style="ellipse;whiteSpace=wrap;html=1;align=center;fontSize=20;" vertex="1" parent="1">
                    <mxGeometry y="200" width="100" height="40" as="geometry"/>
                </mxCell>
                <mxCell id="5UNgzyjXr-kjKphjb-yc-29" value="&lt;span style=&quot;border-bottom: 1px dotted&quot;&gt;주문번호&lt;/span&gt;" style="ellipse;whiteSpace=wrap;html=1;align=center;fontSize=20;" vertex="1" parent="1">
                    <mxGeometry x="420" width="100" height="40" as="geometry"/>
                </mxCell>
                <mxCell id="5UNgzyjXr-kjKphjb-yc-30" value="직업" style="ellipse;whiteSpace=wrap;html=1;align=center;fontSize=20;" vertex="1" parent="1">
                    <mxGeometry y="160" width="100" height="40" as="geometry"/>
                </mxCell>
                <mxCell id="5UNgzyjXr-kjKphjb-yc-31" value="등급" style="ellipse;whiteSpace=wrap;html=1;align=center;fontSize=20;" vertex="1" parent="1">
                    <mxGeometry y="240" width="100" height="40" as="geometry"/>
                </mxCell>
                <mxCell id="5UNgzyjXr-kjKphjb-yc-32" value="정립금" style="ellipse;whiteSpace=wrap;html=1;align=center;fontSize=20;" vertex="1" parent="1">
                    <mxGeometry y="80" width="100" height="40" as="geometry"/>
                </mxCell>
                <mxCell id="5UNgzyjXr-kjKphjb-yc-33" value="" style="endArrow=none;html=1;rounded=0;fontSize=20;entryX=0;entryY=0.5;entryDx=0;entryDy=0;" edge="1" parent="1" target="5UNgzyjXr-kjKphjb-yc-21">
                    <mxGeometry relative="1" as="geometry">
                        <mxPoint x="100" y="19.5" as="sourcePoint"/>
                        <mxPoint x="260" y="19.5" as="targetPoint"/>
                    </mxGeometry>
                </mxCell>
                <mxCell id="5UNgzyjXr-kjKphjb-yc-36" value="" style="endArrow=none;html=1;rounded=0;fontSize=20;entryX=0;entryY=0.5;entryDx=0;entryDy=0;" edge="1" parent="1" target="5UNgzyjXr-kjKphjb-yc-21">
                    <mxGeometry relative="1" as="geometry">
                        <mxPoint x="100" y="139.5" as="sourcePoint"/>
                        <mxPoint x="260" y="139.5" as="targetPoint"/>
                    </mxGeometry>
                </mxCell>
                <mxCell id="5UNgzyjXr-kjKphjb-yc-37" value="" style="endArrow=none;html=1;rounded=0;fontSize=20;entryX=0;entryY=0.5;entryDx=0;entryDy=0;" edge="1" parent="1" target="5UNgzyjXr-kjKphjb-yc-21">
                    <mxGeometry relative="1" as="geometry">
                        <mxPoint x="100" y="179.5" as="sourcePoint"/>
                        <mxPoint x="260" y="179.5" as="targetPoint"/>
                    </mxGeometry>
                </mxCell>
                <mxCell id="5UNgzyjXr-kjKphjb-yc-38" value="" style="endArrow=none;html=1;rounded=0;fontSize=20;entryX=0;entryY=0.5;entryDx=0;entryDy=0;" edge="1" parent="1" target="5UNgzyjXr-kjKphjb-yc-21">
                    <mxGeometry relative="1" as="geometry">
                        <mxPoint x="100" y="219.5" as="sourcePoint"/>
                        <mxPoint x="140" y="130" as="targetPoint"/>
                    </mxGeometry>
                </mxCell>
                <mxCell id="5UNgzyjXr-kjKphjb-yc-39" value="" style="endArrow=none;html=1;rounded=0;fontSize=20;entryX=0;entryY=0.5;entryDx=0;entryDy=0;" edge="1" parent="1" target="5UNgzyjXr-kjKphjb-yc-21">
                    <mxGeometry relative="1" as="geometry">
                        <mxPoint x="100" y="259.5" as="sourcePoint"/>
                        <mxPoint x="140" y="120" as="targetPoint"/>
                    </mxGeometry>
                </mxCell>
                <mxCell id="5UNgzyjXr-kjKphjb-yc-40" value="" style="endArrow=none;html=1;rounded=0;fontSize=20;entryX=0;entryY=0.5;entryDx=0;entryDy=0;" edge="1" parent="1" target="5UNgzyjXr-kjKphjb-yc-21">
                    <mxGeometry relative="1" as="geometry">
                        <mxPoint x="100" y="99.5" as="sourcePoint"/>
                        <mxPoint x="140" y="40" as="targetPoint"/>
                    </mxGeometry>
                </mxCell>
                <mxCell id="5UNgzyjXr-kjKphjb-yc-41" value="" style="endArrow=none;html=1;rounded=0;fontSize=20;entryX=0;entryY=0.5;entryDx=0;entryDy=0;" edge="1" parent="1" target="5UNgzyjXr-kjKphjb-yc-21">
                    <mxGeometry relative="1" as="geometry">
                        <mxPoint x="100" y="59.5" as="sourcePoint"/>
                        <mxPoint x="140" y="80" as="targetPoint"/>
                    </mxGeometry>
                </mxCell>
                <mxCell id="5UNgzyjXr-kjKphjb-yc-42" value="&lt;span style=&quot;border-bottom: 1px dotted&quot;&gt;상품번호&lt;/span&gt;" style="ellipse;whiteSpace=wrap;html=1;align=center;fontSize=20;" vertex="1" parent="1">
                    <mxGeometry x="730" y="20" width="100" height="40" as="geometry"/>
                </mxCell>
                <mxCell id="5UNgzyjXr-kjKphjb-yc-43" value="상품명" style="ellipse;whiteSpace=wrap;html=1;align=center;fontSize=20;" vertex="1" parent="1">
                    <mxGeometry x="730" y="60" width="100" height="40" as="geometry"/>
                </mxCell>
                <mxCell id="5UNgzyjXr-kjKphjb-yc-44" value="재고량" style="ellipse;whiteSpace=wrap;html=1;align=center;fontSize=20;" vertex="1" parent="1">
                    <mxGeometry x="730" y="100" width="100" height="40" as="geometry"/>
                </mxCell>
                <mxCell id="5UNgzyjXr-kjKphjb-yc-45" value="단가" style="ellipse;whiteSpace=wrap;html=1;align=center;fontSize=20;" vertex="1" parent="1">
                    <mxGeometry x="730" y="140" width="100" height="40" as="geometry"/>
                </mxCell>
                <mxCell id="5UNgzyjXr-kjKphjb-yc-46" value="" style="endArrow=none;html=1;rounded=0;fontSize=20;entryX=0;entryY=0.5;entryDx=0;entryDy=0;exitX=1;exitY=0.5;exitDx=0;exitDy=0;" edge="1" parent="1" source="5UNgzyjXr-kjKphjb-yc-22">
                    <mxGeometry relative="1" as="geometry">
                        <mxPoint x="690" y="179.5" as="sourcePoint"/>
                        <mxPoint x="730" y="40" as="targetPoint"/>
                    </mxGeometry>
                </mxCell>
                <mxCell id="5UNgzyjXr-kjKphjb-yc-47" value="" style="endArrow=none;html=1;rounded=0;fontSize=20;entryX=0;entryY=0.5;entryDx=0;entryDy=0;exitX=1;exitY=0.5;exitDx=0;exitDy=0;" edge="1" parent="1" source="5UNgzyjXr-kjKphjb-yc-22" target="5UNgzyjXr-kjKphjb-yc-43">
                    <mxGeometry relative="1" as="geometry">
                        <mxPoint x="690" y="130" as="sourcePoint"/>
                        <mxPoint x="740" y="50" as="targetPoint"/>
                    </mxGeometry>
                </mxCell>
                <mxCell id="5UNgzyjXr-kjKphjb-yc-48" value="" style="endArrow=none;html=1;rounded=0;fontSize=20;entryX=0;entryY=0.5;entryDx=0;entryDy=0;exitX=1;exitY=0.5;exitDx=0;exitDy=0;" edge="1" parent="1" source="5UNgzyjXr-kjKphjb-yc-22" target="5UNgzyjXr-kjKphjb-yc-44">
                    <mxGeometry relative="1" as="geometry">
                        <mxPoint x="690" y="130" as="sourcePoint"/>
                        <mxPoint x="740" y="90" as="targetPoint"/>
                    </mxGeometry>
                </mxCell>
                <mxCell id="5UNgzyjXr-kjKphjb-yc-49" value="" style="endArrow=none;html=1;rounded=0;fontSize=20;entryX=0;entryY=0.5;entryDx=0;entryDy=0;exitX=1;exitY=0.5;exitDx=0;exitDy=0;" edge="1" parent="1" source="5UNgzyjXr-kjKphjb-yc-22" target="5UNgzyjXr-kjKphjb-yc-45">
                    <mxGeometry relative="1" as="geometry">
                        <mxPoint x="680" y="160" as="sourcePoint"/>
                        <mxPoint x="730" y="160" as="targetPoint"/>
                    </mxGeometry>
                </mxCell>
                <mxCell id="5UNgzyjXr-kjKphjb-yc-50" value="&lt;span style=&quot;border-bottom: 1px dotted; font-size: 20px;&quot;&gt;업체코드&lt;/span&gt;" style="ellipse;whiteSpace=wrap;html=1;align=center;fontSize=20;" vertex="1" parent="1">
                    <mxGeometry x="730" y="500" width="100" height="40" as="geometry"/>
                </mxCell>
                <mxCell id="5UNgzyjXr-kjKphjb-yc-52" value="전화번호" style="ellipse;whiteSpace=wrap;html=1;align=center;fontSize=20;" vertex="1" parent="1">
                    <mxGeometry x="730" y="380" width="100" height="40" as="geometry"/>
                </mxCell>
                <mxCell id="5UNgzyjXr-kjKphjb-yc-53" value="위치" style="ellipse;whiteSpace=wrap;html=1;align=center;fontSize=20;" vertex="1" parent="1">
                    <mxGeometry x="730" y="420" width="100" height="40" as="geometry"/>
                </mxCell>
                <mxCell id="5UNgzyjXr-kjKphjb-yc-54" value="담당자" style="ellipse;whiteSpace=wrap;html=1;align=center;fontSize=20;" vertex="1" parent="1">
                    <mxGeometry x="730" y="460" width="100" height="40" as="geometry"/>
                </mxCell>
                <mxCell id="5UNgzyjXr-kjKphjb-yc-56" value="&lt;span style=&quot;border-bottom: 1px dotted&quot;&gt;글번호&lt;/span&gt;" style="ellipse;whiteSpace=wrap;html=1;align=center;fontSize=20;" vertex="1" parent="1">
                    <mxGeometry y="340" width="100" height="40" as="geometry"/>
                </mxCell>
                <mxCell id="5UNgzyjXr-kjKphjb-yc-57" value="글제목" style="ellipse;whiteSpace=wrap;html=1;align=center;fontSize=20;" vertex="1" parent="1">
                    <mxGeometry y="380" width="100" height="40" as="geometry"/>
                </mxCell>
                <mxCell id="5UNgzyjXr-kjKphjb-yc-58" value="글내용" style="ellipse;whiteSpace=wrap;html=1;align=center;fontSize=20;" vertex="1" parent="1">
                    <mxGeometry y="420" width="100" height="40" as="geometry"/>
                </mxCell>
                <mxCell id="5UNgzyjXr-kjKphjb-yc-59" value="작성일자" style="ellipse;whiteSpace=wrap;html=1;align=center;fontSize=20;" vertex="1" parent="1">
                    <mxGeometry y="460" width="100" height="40" as="geometry"/>
                </mxCell>
                <mxCell id="5UNgzyjXr-kjKphjb-yc-60" value="" style="endArrow=none;html=1;rounded=0;fontSize=20;entryX=1;entryY=0.5;entryDx=0;entryDy=0;exitX=0;exitY=0.5;exitDx=0;exitDy=0;" edge="1" parent="1" source="5UNgzyjXr-kjKphjb-yc-24" target="5UNgzyjXr-kjKphjb-yc-56">
                    <mxGeometry relative="1" as="geometry">
                        <mxPoint x="150" y="420" as="sourcePoint"/>
                        <mxPoint x="140" y="360" as="targetPoint"/>
                    </mxGeometry>
                </mxCell>
                <mxCell id="5UNgzyjXr-kjKphjb-yc-61" value="" style="endArrow=none;html=1;rounded=0;fontSize=20;entryX=1;entryY=0.5;entryDx=0;entryDy=0;exitX=0;exitY=0.5;exitDx=0;exitDy=0;" edge="1" parent="1" source="5UNgzyjXr-kjKphjb-yc-24" target="5UNgzyjXr-kjKphjb-yc-57">
                    <mxGeometry relative="1" as="geometry">
                        <mxPoint x="150" y="420" as="sourcePoint"/>
                        <mxPoint x="140" y="400" as="targetPoint"/>
                    </mxGeometry>
                </mxCell>
                <mxCell id="5UNgzyjXr-kjKphjb-yc-62" value="" style="endArrow=none;html=1;rounded=0;fontSize=20;exitX=0;exitY=0.5;exitDx=0;exitDy=0;entryX=1;entryY=0.5;entryDx=0;entryDy=0;" edge="1" parent="1" source="5UNgzyjXr-kjKphjb-yc-24" target="5UNgzyjXr-kjKphjb-yc-58">
                    <mxGeometry relative="1" as="geometry">
                        <mxPoint x="150" y="420" as="sourcePoint"/>
                        <mxPoint x="100" y="440" as="targetPoint"/>
                    </mxGeometry>
                </mxCell>
                <mxCell id="5UNgzyjXr-kjKphjb-yc-63" value="" style="endArrow=none;html=1;rounded=0;fontSize=20;entryX=1;entryY=0.5;entryDx=0;entryDy=0;exitX=0;exitY=0.5;exitDx=0;exitDy=0;" edge="1" parent="1" source="5UNgzyjXr-kjKphjb-yc-24" target="5UNgzyjXr-kjKphjb-yc-59">
                    <mxGeometry relative="1" as="geometry">
                        <mxPoint x="100" y="420" as="sourcePoint"/>
                        <mxPoint x="140" y="480" as="targetPoint"/>
                        <Array as="points"/>
                    </mxGeometry>
                </mxCell>
                <mxCell id="5UNgzyjXr-kjKphjb-yc-64" value="" style="endArrow=none;html=1;rounded=0;fontSize=20;entryX=1;entryY=0.5;entryDx=0;entryDy=0;exitX=0;exitY=0.5;exitDx=0;exitDy=0;" edge="1" parent="1" source="5UNgzyjXr-kjKphjb-yc-50" target="5UNgzyjXr-kjKphjb-yc-23">
                    <mxGeometry relative="1" as="geometry">
                        <mxPoint x="480" y="359.5" as="sourcePoint"/>
                        <mxPoint x="520" y="220" as="targetPoint"/>
                    </mxGeometry>
                </mxCell>
                <mxCell id="5UNgzyjXr-kjKphjb-yc-65" value="" style="endArrow=none;html=1;rounded=0;fontSize=20;exitX=0;exitY=0.5;exitDx=0;exitDy=0;" edge="1" parent="1" source="5UNgzyjXr-kjKphjb-yc-52">
                    <mxGeometry relative="1" as="geometry">
                        <mxPoint x="490" y="369.5" as="sourcePoint"/>
                        <mxPoint x="680" y="420" as="targetPoint"/>
                    </mxGeometry>
                </mxCell>
                <mxCell id="5UNgzyjXr-kjKphjb-yc-66" value="" style="endArrow=none;html=1;rounded=0;fontSize=20;exitX=0;exitY=0.5;exitDx=0;exitDy=0;" edge="1" parent="1" source="5UNgzyjXr-kjKphjb-yc-53">
                    <mxGeometry relative="1" as="geometry">
                        <mxPoint x="490" y="410" as="sourcePoint"/>
                        <mxPoint x="680" y="420" as="targetPoint"/>
                    </mxGeometry>
                </mxCell>
                <mxCell id="5UNgzyjXr-kjKphjb-yc-67" value="" style="endArrow=none;html=1;rounded=0;fontSize=20;exitX=0;exitY=0.5;exitDx=0;exitDy=0;" edge="1" parent="1" source="5UNgzyjXr-kjKphjb-yc-54">
                    <mxGeometry relative="1" as="geometry">
                        <mxPoint x="490" y="450" as="sourcePoint"/>
                        <mxPoint x="680" y="420" as="targetPoint"/>
                    </mxGeometry>
                </mxCell>
                <mxCell id="5UNgzyjXr-kjKphjb-yc-68" value="" style="endArrow=none;html=1;rounded=0;fontSize=17;entryX=0;entryY=0.5;entryDx=0;entryDy=0;exitX=1;exitY=0.5;exitDx=0;exitDy=0;" edge="1" parent="1" source="5UNgzyjXr-kjKphjb-yc-21" target="5UNgzyjXr-kjKphjb-yc-22">
                    <mxGeometry relative="1" as="geometry">
                        <mxPoint x="300" y="120" as="sourcePoint"/>
                        <mxPoint x="460" y="120" as="targetPoint"/>
                    </mxGeometry>
                </mxCell>
                <mxCell id="5UNgzyjXr-kjKphjb-yc-69" value="M" style="resizable=0;html=1;align=left;verticalAlign=bottom;fontSize=17;" connectable="0" vertex="1" parent="5UNgzyjXr-kjKphjb-yc-68">
                    <mxGeometry x="-1" relative="1" as="geometry">
                        <mxPoint x="10" as="offset"/>
                    </mxGeometry>
                </mxCell>
                <mxCell id="5UNgzyjXr-kjKphjb-yc-70" value="N" style="resizable=0;html=1;align=right;verticalAlign=bottom;fontSize=17;" connectable="0" vertex="1" parent="5UNgzyjXr-kjKphjb-yc-68">
                    <mxGeometry x="1" relative="1" as="geometry">
                        <mxPoint x="-10" as="offset"/>
                    </mxGeometry>
                </mxCell>
                <mxCell id="5UNgzyjXr-kjKphjb-yc-72" value="" style="edgeStyle=none;html=1;fontSize=17;" edge="1" parent="1" source="5UNgzyjXr-kjKphjb-yc-71">
                    <mxGeometry relative="1" as="geometry">
                        <mxPoint x="520" y="120" as="targetPoint"/>
                        <Array as="points"/>
                    </mxGeometry>
                </mxCell>
                <mxCell id="5UNgzyjXr-kjKphjb-yc-71" value="주문" style="shape=rhombus;perimeter=rhombusPerimeter;whiteSpace=wrap;html=1;align=center;fontSize=17;" vertex="1" parent="1">
                    <mxGeometry x="350" y="90" width="120" height="60" as="geometry"/>
                </mxCell>
                <mxCell id="5UNgzyjXr-kjKphjb-yc-74" value="&lt;span style=&quot;border-bottom: 1px dotted&quot;&gt;아이디&lt;/span&gt;" style="ellipse;whiteSpace=wrap;html=1;align=center;fontSize=20;" vertex="1" parent="1">
                    <mxGeometry width="100" height="40" as="geometry"/>
                </mxCell>
                <mxCell id="5UNgzyjXr-kjKphjb-yc-75" value="배송지" style="ellipse;whiteSpace=wrap;html=1;align=center;fontSize=20;" vertex="1" parent="1">
                    <mxGeometry x="220" width="100" height="40" as="geometry"/>
                </mxCell>
                <mxCell id="5UNgzyjXr-kjKphjb-yc-76" value="주문수량" style="ellipse;whiteSpace=wrap;html=1;align=center;fontSize=20;" vertex="1" parent="1">
                    <mxGeometry x="320" width="100" height="40" as="geometry"/>
                </mxCell>
                <mxCell id="5UNgzyjXr-kjKphjb-yc-77" value="주문일자" style="ellipse;whiteSpace=wrap;html=1;align=center;fontSize=20;" vertex="1" parent="1">
                    <mxGeometry x="520" width="100" height="40" as="geometry"/>
                </mxCell>
                <mxCell id="5UNgzyjXr-kjKphjb-yc-78" value="" style="endArrow=none;html=1;rounded=0;fontSize=17;exitX=0.5;exitY=1;exitDx=0;exitDy=0;entryX=0.5;entryY=0;entryDx=0;entryDy=0;" edge="1" parent="1" source="5UNgzyjXr-kjKphjb-yc-75" target="5UNgzyjXr-kjKphjb-yc-71">
                    <mxGeometry relative="1" as="geometry">
                        <mxPoint x="410" y="220" as="sourcePoint"/>
                        <mxPoint x="570" y="220" as="targetPoint"/>
                    </mxGeometry>
                </mxCell>
                <mxCell id="5UNgzyjXr-kjKphjb-yc-79" value="" style="endArrow=none;html=1;rounded=0;fontSize=17;exitX=0.5;exitY=1;exitDx=0;exitDy=0;entryX=0.5;entryY=0;entryDx=0;entryDy=0;" edge="1" parent="1" source="5UNgzyjXr-kjKphjb-yc-76" target="5UNgzyjXr-kjKphjb-yc-71">
                    <mxGeometry relative="1" as="geometry">
                        <mxPoint x="280" y="50" as="sourcePoint"/>
                        <mxPoint x="420" y="100" as="targetPoint"/>
                    </mxGeometry>
                </mxCell>
                <mxCell id="5UNgzyjXr-kjKphjb-yc-80" value="" style="endArrow=none;html=1;rounded=0;fontSize=17;exitX=0.5;exitY=1;exitDx=0;exitDy=0;entryX=0.5;entryY=0;entryDx=0;entryDy=0;" edge="1" parent="1" source="5UNgzyjXr-kjKphjb-yc-29" target="5UNgzyjXr-kjKphjb-yc-71">
                    <mxGeometry relative="1" as="geometry">
                        <mxPoint x="380" y="50" as="sourcePoint"/>
                        <mxPoint x="410" y="90" as="targetPoint"/>
                    </mxGeometry>
                </mxCell>
                <mxCell id="5UNgzyjXr-kjKphjb-yc-81" value="" style="endArrow=none;html=1;rounded=0;fontSize=17;exitX=0.5;exitY=1;exitDx=0;exitDy=0;entryX=0.5;entryY=0;entryDx=0;entryDy=0;" edge="1" parent="1" source="5UNgzyjXr-kjKphjb-yc-77" target="5UNgzyjXr-kjKphjb-yc-71">
                    <mxGeometry relative="1" as="geometry">
                        <mxPoint x="480" y="50" as="sourcePoint"/>
                        <mxPoint x="420" y="100" as="targetPoint"/>
                    </mxGeometry>
                </mxCell>
                <mxCell id="5UNgzyjXr-kjKphjb-yc-82" value="공급" style="shape=rhombus;perimeter=rhombusPerimeter;whiteSpace=wrap;html=1;align=center;fontSize=17;" vertex="1" parent="1">
                    <mxGeometry x="540" y="240" width="120" height="60" as="geometry"/>
                </mxCell>
                <mxCell id="5UNgzyjXr-kjKphjb-yc-83" value="공급량" style="ellipse;whiteSpace=wrap;html=1;align=center;fontSize=20;" vertex="1" parent="1">
                    <mxGeometry x="710" y="210" width="100" height="40" as="geometry"/>
                </mxCell>
                <mxCell id="5UNgzyjXr-kjKphjb-yc-84" value="공급일자" style="ellipse;whiteSpace=wrap;html=1;align=center;fontSize=20;" vertex="1" parent="1">
                    <mxGeometry x="710" y="260" width="100" height="40" as="geometry"/>
                </mxCell>
                <mxCell id="5UNgzyjXr-kjKphjb-yc-86" value="" style="endArrow=none;html=1;rounded=0;fontSize=17;entryX=0;entryY=0.5;entryDx=0;entryDy=0;exitX=1;exitY=0.5;exitDx=0;exitDy=0;" edge="1" parent="1" source="5UNgzyjXr-kjKphjb-yc-82" target="5UNgzyjXr-kjKphjb-yc-83">
                    <mxGeometry relative="1" as="geometry">
                        <mxPoint x="410" y="420" as="sourcePoint"/>
                        <mxPoint x="570" y="420" as="targetPoint"/>
                    </mxGeometry>
                </mxCell>
                <mxCell id="5UNgzyjXr-kjKphjb-yc-87" value="" style="endArrow=none;html=1;rounded=0;fontSize=17;entryX=0;entryY=0.5;entryDx=0;entryDy=0;exitX=1;exitY=0.5;exitDx=0;exitDy=0;" edge="1" parent="1" source="5UNgzyjXr-kjKphjb-yc-82" target="5UNgzyjXr-kjKphjb-yc-84">
                    <mxGeometry relative="1" as="geometry">
                        <mxPoint x="670" y="280" as="sourcePoint"/>
                        <mxPoint x="720" y="240" as="targetPoint"/>
                    </mxGeometry>
                </mxCell>
                <mxCell id="5UNgzyjXr-kjKphjb-yc-91" value="" style="endArrow=none;html=1;rounded=0;fontSize=17;exitX=0.5;exitY=1;exitDx=0;exitDy=0;entryX=0.5;entryY=0;entryDx=0;entryDy=0;" edge="1" parent="1" source="5UNgzyjXr-kjKphjb-yc-82" target="5UNgzyjXr-kjKphjb-yc-23">
                    <mxGeometry relative="1" as="geometry">
                        <mxPoint x="410" y="420" as="sourcePoint"/>
                        <mxPoint x="570" y="420" as="targetPoint"/>
                    </mxGeometry>
                </mxCell>
                <mxCell id="5UNgzyjXr-kjKphjb-yc-92" value="1" style="resizable=0;html=1;align=right;verticalAlign=bottom;fontSize=17;" connectable="0" vertex="1" parent="5UNgzyjXr-kjKphjb-yc-91">
                    <mxGeometry x="1" relative="1" as="geometry">
                        <mxPoint x="-10" y="-10" as="offset"/>
                    </mxGeometry>
                </mxCell>
                <mxCell id="5UNgzyjXr-kjKphjb-yc-93" value="" style="shape=link;html=1;rounded=0;fontSize=17;exitX=0.5;exitY=1;exitDx=0;exitDy=0;entryX=0.5;entryY=0;entryDx=0;entryDy=0;" edge="1" parent="1" source="5UNgzyjXr-kjKphjb-yc-22" target="5UNgzyjXr-kjKphjb-yc-82">
                    <mxGeometry relative="1" as="geometry">
                        <mxPoint x="410" y="420" as="sourcePoint"/>
                        <mxPoint x="570" y="420" as="targetPoint"/>
                    </mxGeometry>
                </mxCell>
                <mxCell id="5UNgzyjXr-kjKphjb-yc-94" value="N" style="resizable=0;html=1;align=right;verticalAlign=bottom;fontSize=17;" connectable="0" vertex="1" parent="5UNgzyjXr-kjKphjb-yc-93">
                    <mxGeometry x="1" relative="1" as="geometry">
                        <mxPoint x="-10" y="-50" as="offset"/>
                    </mxGeometry>
                </mxCell>
                <mxCell id="5UNgzyjXr-kjKphjb-yc-95" value="작성" style="shape=rhombus;perimeter=rhombusPerimeter;whiteSpace=wrap;html=1;align=center;fontSize=17;" vertex="1" parent="1">
                    <mxGeometry x="170" y="230" width="120" height="60" as="geometry"/>
                </mxCell>
                <mxCell id="5UNgzyjXr-kjKphjb-yc-96" value="" style="shape=link;html=1;rounded=0;fontSize=17;entryX=0.45;entryY=-0.037;entryDx=0;entryDy=0;entryPerimeter=0;exitX=0.5;exitY=1;exitDx=0;exitDy=0;" edge="1" parent="1" source="5UNgzyjXr-kjKphjb-yc-95" target="5UNgzyjXr-kjKphjb-yc-24">
                    <mxGeometry relative="1" as="geometry">
                        <mxPoint x="410" y="220" as="sourcePoint"/>
                        <mxPoint x="570" y="220" as="targetPoint"/>
                    </mxGeometry>
                </mxCell>
                <mxCell id="5UNgzyjXr-kjKphjb-yc-97" value="N" style="resizable=0;html=1;align=right;verticalAlign=bottom;fontSize=17;" connectable="0" vertex="1" parent="5UNgzyjXr-kjKphjb-yc-96">
                    <mxGeometry x="1" relative="1" as="geometry"/>
                </mxCell>
                <mxCell id="5UNgzyjXr-kjKphjb-yc-98" value="" style="endArrow=none;html=1;rounded=0;fontSize=17;exitX=0.5;exitY=0;exitDx=0;exitDy=0;entryX=0.5;entryY=1;entryDx=0;entryDy=0;" edge="1" parent="1" source="5UNgzyjXr-kjKphjb-yc-95" target="5UNgzyjXr-kjKphjb-yc-21">
                    <mxGeometry relative="1" as="geometry">
                        <mxPoint x="229.5" y="250" as="sourcePoint"/>
                        <mxPoint x="229.5" y="180" as="targetPoint"/>
                    </mxGeometry>
                </mxCell>
                <mxCell id="5UNgzyjXr-kjKphjb-yc-99" value="1" style="resizable=0;html=1;align=right;verticalAlign=bottom;fontSize=17;" connectable="0" vertex="1" parent="5UNgzyjXr-kjKphjb-yc-98">
                    <mxGeometry x="1" relative="1" as="geometry">
                        <mxPoint x="-10" y="40" as="offset"/>
                    </mxGeometry>
                </mxCell>
                <mxCell id="5UNgzyjXr-kjKphjb-yc-100" value="제조업체명" style="ellipse;whiteSpace=wrap;html=1;align=center;fontSize=17;" vertex="1" parent="1">
                    <mxGeometry x="730" y="340" width="100" height="40" as="geometry"/>
                </mxCell>
                <mxCell id="5UNgzyjXr-kjKphjb-yc-102" value="" style="endArrow=none;html=1;rounded=0;fontSize=20;entryX=1;entryY=0.5;entryDx=0;entryDy=0;exitX=0;exitY=0.5;exitDx=0;exitDy=0;" edge="1" parent="1" source="5UNgzyjXr-kjKphjb-yc-100" target="5UNgzyjXr-kjKphjb-yc-23">
                    <mxGeometry relative="1" as="geometry">
                        <mxPoint x="630" y="510" as="sourcePoint"/>
                        <mxPoint x="690" y="430" as="targetPoint"/>
                    </mxGeometry>
                </mxCell>
            </root>
        </mxGraphModel>
    </diagram>
    <diagram id="H_0hiwt029qif2yCT5pY" name="Page-2">
        <mxGraphModel dx="1205" dy="761" grid="1" gridSize="10" guides="1" tooltips="1" connect="1" arrows="1" fold="1" page="1" pageScale="1" pageWidth="850" pageHeight="1100" math="0" shadow="0">
            <root>
                <mxCell id="0"/>
                <mxCell id="1" parent="0"/>
                <mxCell id="mzwiKnHIS2N00SebCTAr-1" value="제조업체" style="shape=table;startSize=30;container=1;collapsible=1;childLayout=tableLayout;fixedRows=1;rowLines=0;fontStyle=1;align=center;resizeLast=1;fontSize=20;" vertex="1" parent="1">
                    <mxGeometry x="580" y="420" width="180" height="180" as="geometry"/>
                </mxCell>
                <mxCell id="mzwiKnHIS2N00SebCTAr-2" value="" style="shape=tableRow;horizontal=0;startSize=0;swimlaneHead=0;swimlaneBody=0;fillColor=none;collapsible=0;dropTarget=0;points=[[0,0.5],[1,0.5]];portConstraint=eastwest;top=0;left=0;right=0;bottom=1;fontSize=20;" vertex="1" parent="mzwiKnHIS2N00SebCTAr-1">
                    <mxGeometry y="30" width="180" height="30" as="geometry"/>
                </mxCell>
                <mxCell id="mzwiKnHIS2N00SebCTAr-3" value="PK" style="shape=partialRectangle;connectable=0;fillColor=none;top=0;left=0;bottom=0;right=0;fontStyle=1;overflow=hidden;fontSize=20;" vertex="1" parent="mzwiKnHIS2N00SebCTAr-2">
                    <mxGeometry width="30" height="30" as="geometry">
                        <mxRectangle width="30" height="30" as="alternateBounds"/>
                    </mxGeometry>
                </mxCell>
                <mxCell id="mzwiKnHIS2N00SebCTAr-4" value="업체코드" style="shape=partialRectangle;connectable=0;fillColor=none;top=0;left=0;bottom=0;right=0;align=left;spacingLeft=6;fontStyle=5;overflow=hidden;fontSize=20;" vertex="1" parent="mzwiKnHIS2N00SebCTAr-2">
                    <mxGeometry x="30" width="150" height="30" as="geometry">
                        <mxRectangle width="150" height="30" as="alternateBounds"/>
                    </mxGeometry>
                </mxCell>
                <mxCell id="mzwiKnHIS2N00SebCTAr-5" value="" style="shape=tableRow;horizontal=0;startSize=0;swimlaneHead=0;swimlaneBody=0;fillColor=none;collapsible=0;dropTarget=0;points=[[0,0.5],[1,0.5]];portConstraint=eastwest;top=0;left=0;right=0;bottom=0;fontSize=20;" vertex="1" parent="mzwiKnHIS2N00SebCTAr-1">
                    <mxGeometry y="60" width="180" height="30" as="geometry"/>
                </mxCell>
                <mxCell id="mzwiKnHIS2N00SebCTAr-6" value="" style="shape=partialRectangle;connectable=0;fillColor=none;top=0;left=0;bottom=0;right=0;editable=1;overflow=hidden;fontSize=20;" vertex="1" parent="mzwiKnHIS2N00SebCTAr-5">
                    <mxGeometry width="30" height="30" as="geometry">
                        <mxRectangle width="30" height="30" as="alternateBounds"/>
                    </mxGeometry>
                </mxCell>
                <mxCell id="mzwiKnHIS2N00SebCTAr-7" value="업체명" style="shape=partialRectangle;connectable=0;fillColor=none;top=0;left=0;bottom=0;right=0;align=left;spacingLeft=6;overflow=hidden;fontSize=20;" vertex="1" parent="mzwiKnHIS2N00SebCTAr-5">
                    <mxGeometry x="30" width="150" height="30" as="geometry">
                        <mxRectangle width="150" height="30" as="alternateBounds"/>
                    </mxGeometry>
                </mxCell>
                <mxCell id="mzwiKnHIS2N00SebCTAr-8" value="" style="shape=tableRow;horizontal=0;startSize=0;swimlaneHead=0;swimlaneBody=0;fillColor=none;collapsible=0;dropTarget=0;points=[[0,0.5],[1,0.5]];portConstraint=eastwest;top=0;left=0;right=0;bottom=0;fontSize=20;" vertex="1" parent="mzwiKnHIS2N00SebCTAr-1">
                    <mxGeometry y="90" width="180" height="30" as="geometry"/>
                </mxCell>
                <mxCell id="mzwiKnHIS2N00SebCTAr-9" value="" style="shape=partialRectangle;connectable=0;fillColor=none;top=0;left=0;bottom=0;right=0;editable=1;overflow=hidden;fontSize=20;" vertex="1" parent="mzwiKnHIS2N00SebCTAr-8">
                    <mxGeometry width="30" height="30" as="geometry">
                        <mxRectangle width="30" height="30" as="alternateBounds"/>
                    </mxGeometry>
                </mxCell>
                <mxCell id="mzwiKnHIS2N00SebCTAr-10" value="전화번호" style="shape=partialRectangle;connectable=0;fillColor=none;top=0;left=0;bottom=0;right=0;align=left;spacingLeft=6;overflow=hidden;fontSize=20;" vertex="1" parent="mzwiKnHIS2N00SebCTAr-8">
                    <mxGeometry x="30" width="150" height="30" as="geometry">
                        <mxRectangle width="150" height="30" as="alternateBounds"/>
                    </mxGeometry>
                </mxCell>
                <mxCell id="mzwiKnHIS2N00SebCTAr-11" value="" style="shape=tableRow;horizontal=0;startSize=0;swimlaneHead=0;swimlaneBody=0;fillColor=none;collapsible=0;dropTarget=0;points=[[0,0.5],[1,0.5]];portConstraint=eastwest;top=0;left=0;right=0;bottom=0;fontSize=20;" vertex="1" parent="mzwiKnHIS2N00SebCTAr-1">
                    <mxGeometry y="120" width="180" height="30" as="geometry"/>
                </mxCell>
                <mxCell id="mzwiKnHIS2N00SebCTAr-12" value="" style="shape=partialRectangle;connectable=0;fillColor=none;top=0;left=0;bottom=0;right=0;editable=1;overflow=hidden;fontSize=20;" vertex="1" parent="mzwiKnHIS2N00SebCTAr-11">
                    <mxGeometry width="30" height="30" as="geometry">
                        <mxRectangle width="30" height="30" as="alternateBounds"/>
                    </mxGeometry>
                </mxCell>
                <mxCell id="mzwiKnHIS2N00SebCTAr-13" value="위치" style="shape=partialRectangle;connectable=0;fillColor=none;top=0;left=0;bottom=0;right=0;align=left;spacingLeft=6;overflow=hidden;fontSize=20;" vertex="1" parent="mzwiKnHIS2N00SebCTAr-11">
                    <mxGeometry x="30" width="150" height="30" as="geometry">
                        <mxRectangle width="150" height="30" as="alternateBounds"/>
                    </mxGeometry>
                </mxCell>
                <mxCell id="wxnNnvaobZzjYoxUqIwK-1" value="" style="shape=tableRow;horizontal=0;startSize=0;swimlaneHead=0;swimlaneBody=0;fillColor=none;collapsible=0;dropTarget=0;points=[[0,0.5],[1,0.5]];portConstraint=eastwest;top=0;left=0;right=0;bottom=0;fontSize=20;" vertex="1" parent="mzwiKnHIS2N00SebCTAr-1">
                    <mxGeometry y="150" width="180" height="30" as="geometry"/>
                </mxCell>
                <mxCell id="wxnNnvaobZzjYoxUqIwK-2" value="" style="shape=partialRectangle;connectable=0;fillColor=none;top=0;left=0;bottom=0;right=0;editable=1;overflow=hidden;fontSize=20;" vertex="1" parent="wxnNnvaobZzjYoxUqIwK-1">
                    <mxGeometry width="30" height="30" as="geometry">
                        <mxRectangle width="30" height="30" as="alternateBounds"/>
                    </mxGeometry>
                </mxCell>
                <mxCell id="wxnNnvaobZzjYoxUqIwK-3" value="담당자" style="shape=partialRectangle;connectable=0;fillColor=none;top=0;left=0;bottom=0;right=0;align=left;spacingLeft=6;overflow=hidden;fontSize=20;" vertex="1" parent="wxnNnvaobZzjYoxUqIwK-1">
                    <mxGeometry x="30" width="150" height="30" as="geometry">
                        <mxRectangle width="150" height="30" as="alternateBounds"/>
                    </mxGeometry>
                </mxCell>
                <mxCell id="VZXPq15NsztpYanEYZGU-1" value="상품" style="shape=table;startSize=30;container=1;collapsible=1;childLayout=tableLayout;fixedRows=1;rowLines=0;fontStyle=1;align=center;resizeLast=1;fontSize=20;" vertex="1" parent="1">
                    <mxGeometry x="580" y="40" width="180" height="180" as="geometry"/>
                </mxCell>
                <mxCell id="VZXPq15NsztpYanEYZGU-2" value="" style="shape=tableRow;horizontal=0;startSize=0;swimlaneHead=0;swimlaneBody=0;fillColor=none;collapsible=0;dropTarget=0;points=[[0,0.5],[1,0.5]];portConstraint=eastwest;top=0;left=0;right=0;bottom=1;fontSize=20;" vertex="1" parent="VZXPq15NsztpYanEYZGU-1">
                    <mxGeometry y="30" width="180" height="30" as="geometry"/>
                </mxCell>
                <mxCell id="VZXPq15NsztpYanEYZGU-3" value="PK" style="shape=partialRectangle;connectable=0;fillColor=none;top=0;left=0;bottom=0;right=0;fontStyle=1;overflow=hidden;fontSize=20;" vertex="1" parent="VZXPq15NsztpYanEYZGU-2">
                    <mxGeometry width="30" height="30" as="geometry">
                        <mxRectangle width="30" height="30" as="alternateBounds"/>
                    </mxGeometry>
                </mxCell>
                <mxCell id="VZXPq15NsztpYanEYZGU-4" value="상품번호" style="shape=partialRectangle;connectable=0;fillColor=none;top=0;left=0;bottom=0;right=0;align=left;spacingLeft=6;fontStyle=5;overflow=hidden;fontSize=20;" vertex="1" parent="VZXPq15NsztpYanEYZGU-2">
                    <mxGeometry x="30" width="150" height="30" as="geometry">
                        <mxRectangle width="150" height="30" as="alternateBounds"/>
                    </mxGeometry>
                </mxCell>
                <mxCell id="GjqVeFv8JzNLS1Nz9_6Z-15" value="" style="shape=tableRow;horizontal=0;startSize=0;swimlaneHead=0;swimlaneBody=0;fillColor=none;collapsible=0;dropTarget=0;points=[[0,0.5],[1,0.5]];portConstraint=eastwest;top=0;left=0;right=0;bottom=1;fontSize=20;" vertex="1" parent="VZXPq15NsztpYanEYZGU-1">
                    <mxGeometry y="60" width="180" height="30" as="geometry"/>
                </mxCell>
                <mxCell id="GjqVeFv8JzNLS1Nz9_6Z-16" value="FK" style="shape=partialRectangle;connectable=0;fillColor=none;top=0;left=0;bottom=0;right=0;fontStyle=1;overflow=hidden;fontSize=20;" vertex="1" parent="GjqVeFv8JzNLS1Nz9_6Z-15">
                    <mxGeometry width="30" height="30" as="geometry">
                        <mxRectangle width="30" height="30" as="alternateBounds"/>
                    </mxGeometry>
                </mxCell>
                <mxCell id="GjqVeFv8JzNLS1Nz9_6Z-17" value="업체코드" style="shape=partialRectangle;connectable=0;fillColor=none;top=0;left=0;bottom=0;right=0;align=left;spacingLeft=6;fontStyle=5;overflow=hidden;fontSize=20;" vertex="1" parent="GjqVeFv8JzNLS1Nz9_6Z-15">
                    <mxGeometry x="30" width="150" height="30" as="geometry">
                        <mxRectangle width="150" height="30" as="alternateBounds"/>
                    </mxGeometry>
                </mxCell>
                <mxCell id="VZXPq15NsztpYanEYZGU-5" value="" style="shape=tableRow;horizontal=0;startSize=0;swimlaneHead=0;swimlaneBody=0;fillColor=none;collapsible=0;dropTarget=0;points=[[0,0.5],[1,0.5]];portConstraint=eastwest;top=0;left=0;right=0;bottom=0;fontSize=20;" vertex="1" parent="VZXPq15NsztpYanEYZGU-1">
                    <mxGeometry y="90" width="180" height="30" as="geometry"/>
                </mxCell>
                <mxCell id="VZXPq15NsztpYanEYZGU-6" value="" style="shape=partialRectangle;connectable=0;fillColor=none;top=0;left=0;bottom=0;right=0;editable=1;overflow=hidden;fontSize=20;" vertex="1" parent="VZXPq15NsztpYanEYZGU-5">
                    <mxGeometry width="30" height="30" as="geometry">
                        <mxRectangle width="30" height="30" as="alternateBounds"/>
                    </mxGeometry>
                </mxCell>
                <mxCell id="VZXPq15NsztpYanEYZGU-7" value="상품명    " style="shape=partialRectangle;connectable=0;fillColor=none;top=0;left=0;bottom=0;right=0;align=left;spacingLeft=6;overflow=hidden;fontSize=20;" vertex="1" parent="VZXPq15NsztpYanEYZGU-5">
                    <mxGeometry x="30" width="150" height="30" as="geometry">
                        <mxRectangle width="150" height="30" as="alternateBounds"/>
                    </mxGeometry>
                </mxCell>
                <mxCell id="VZXPq15NsztpYanEYZGU-8" value="" style="shape=tableRow;horizontal=0;startSize=0;swimlaneHead=0;swimlaneBody=0;fillColor=none;collapsible=0;dropTarget=0;points=[[0,0.5],[1,0.5]];portConstraint=eastwest;top=0;left=0;right=0;bottom=0;fontSize=20;" vertex="1" parent="VZXPq15NsztpYanEYZGU-1">
                    <mxGeometry y="120" width="180" height="30" as="geometry"/>
                </mxCell>
                <mxCell id="VZXPq15NsztpYanEYZGU-9" value="" style="shape=partialRectangle;connectable=0;fillColor=none;top=0;left=0;bottom=0;right=0;editable=1;overflow=hidden;fontSize=20;" vertex="1" parent="VZXPq15NsztpYanEYZGU-8">
                    <mxGeometry width="30" height="30" as="geometry">
                        <mxRectangle width="30" height="30" as="alternateBounds"/>
                    </mxGeometry>
                </mxCell>
                <mxCell id="VZXPq15NsztpYanEYZGU-10" value="재고량" style="shape=partialRectangle;connectable=0;fillColor=none;top=0;left=0;bottom=0;right=0;align=left;spacingLeft=6;overflow=hidden;fontSize=20;" vertex="1" parent="VZXPq15NsztpYanEYZGU-8">
                    <mxGeometry x="30" width="150" height="30" as="geometry">
                        <mxRectangle width="150" height="30" as="alternateBounds"/>
                    </mxGeometry>
                </mxCell>
                <mxCell id="VZXPq15NsztpYanEYZGU-11" value="" style="shape=tableRow;horizontal=0;startSize=0;swimlaneHead=0;swimlaneBody=0;fillColor=none;collapsible=0;dropTarget=0;points=[[0,0.5],[1,0.5]];portConstraint=eastwest;top=0;left=0;right=0;bottom=0;fontSize=20;" vertex="1" parent="VZXPq15NsztpYanEYZGU-1">
                    <mxGeometry y="150" width="180" height="30" as="geometry"/>
                </mxCell>
                <mxCell id="VZXPq15NsztpYanEYZGU-12" value="" style="shape=partialRectangle;connectable=0;fillColor=none;top=0;left=0;bottom=0;right=0;editable=1;overflow=hidden;fontSize=20;" vertex="1" parent="VZXPq15NsztpYanEYZGU-11">
                    <mxGeometry width="30" height="30" as="geometry">
                        <mxRectangle width="30" height="30" as="alternateBounds"/>
                    </mxGeometry>
                </mxCell>
                <mxCell id="VZXPq15NsztpYanEYZGU-13" value="단가" style="shape=partialRectangle;connectable=0;fillColor=none;top=0;left=0;bottom=0;right=0;align=left;spacingLeft=6;overflow=hidden;fontSize=20;" vertex="1" parent="VZXPq15NsztpYanEYZGU-11">
                    <mxGeometry x="30" width="150" height="30" as="geometry">
                        <mxRectangle width="150" height="30" as="alternateBounds"/>
                    </mxGeometry>
                </mxCell>
                <mxCell id="wxnNnvaobZzjYoxUqIwK-4" value="회원" style="shape=table;startSize=30;container=1;collapsible=1;childLayout=tableLayout;fixedRows=1;rowLines=0;fontStyle=1;align=center;resizeLast=1;fontSize=20;" vertex="1" parent="1">
                    <mxGeometry x="80" y="40" width="180" height="240" as="geometry"/>
                </mxCell>
                <mxCell id="wxnNnvaobZzjYoxUqIwK-5" value="" style="shape=tableRow;horizontal=0;startSize=0;swimlaneHead=0;swimlaneBody=0;fillColor=none;collapsible=0;dropTarget=0;points=[[0,0.5],[1,0.5]];portConstraint=eastwest;top=0;left=0;right=0;bottom=1;fontSize=20;" vertex="1" parent="wxnNnvaobZzjYoxUqIwK-4">
                    <mxGeometry y="30" width="180" height="30" as="geometry"/>
                </mxCell>
                <mxCell id="wxnNnvaobZzjYoxUqIwK-6" value="PK" style="shape=partialRectangle;connectable=0;fillColor=none;top=0;left=0;bottom=0;right=0;fontStyle=1;overflow=hidden;fontSize=20;" vertex="1" parent="wxnNnvaobZzjYoxUqIwK-5">
                    <mxGeometry width="30" height="30" as="geometry">
                        <mxRectangle width="30" height="30" as="alternateBounds"/>
                    </mxGeometry>
                </mxCell>
                <mxCell id="wxnNnvaobZzjYoxUqIwK-7" value="아이디" style="shape=partialRectangle;connectable=0;fillColor=none;top=0;left=0;bottom=0;right=0;align=left;spacingLeft=6;fontStyle=5;overflow=hidden;fontSize=20;" vertex="1" parent="wxnNnvaobZzjYoxUqIwK-5">
                    <mxGeometry x="30" width="150" height="30" as="geometry">
                        <mxRectangle width="150" height="30" as="alternateBounds"/>
                    </mxGeometry>
                </mxCell>
                <mxCell id="wxnNnvaobZzjYoxUqIwK-8" value="" style="shape=tableRow;horizontal=0;startSize=0;swimlaneHead=0;swimlaneBody=0;fillColor=none;collapsible=0;dropTarget=0;points=[[0,0.5],[1,0.5]];portConstraint=eastwest;top=0;left=0;right=0;bottom=0;fontSize=20;" vertex="1" parent="wxnNnvaobZzjYoxUqIwK-4">
                    <mxGeometry y="60" width="180" height="30" as="geometry"/>
                </mxCell>
                <mxCell id="wxnNnvaobZzjYoxUqIwK-9" value="" style="shape=partialRectangle;connectable=0;fillColor=none;top=0;left=0;bottom=0;right=0;editable=1;overflow=hidden;fontSize=20;" vertex="1" parent="wxnNnvaobZzjYoxUqIwK-8">
                    <mxGeometry width="30" height="30" as="geometry">
                        <mxRectangle width="30" height="30" as="alternateBounds"/>
                    </mxGeometry>
                </mxCell>
                <mxCell id="wxnNnvaobZzjYoxUqIwK-10" value="비밀번호" style="shape=partialRectangle;connectable=0;fillColor=none;top=0;left=0;bottom=0;right=0;align=left;spacingLeft=6;overflow=hidden;fontSize=20;" vertex="1" parent="wxnNnvaobZzjYoxUqIwK-8">
                    <mxGeometry x="30" width="150" height="30" as="geometry">
                        <mxRectangle width="150" height="30" as="alternateBounds"/>
                    </mxGeometry>
                </mxCell>
                <mxCell id="wxnNnvaobZzjYoxUqIwK-11" value="" style="shape=tableRow;horizontal=0;startSize=0;swimlaneHead=0;swimlaneBody=0;fillColor=none;collapsible=0;dropTarget=0;points=[[0,0.5],[1,0.5]];portConstraint=eastwest;top=0;left=0;right=0;bottom=0;fontSize=20;" vertex="1" parent="wxnNnvaobZzjYoxUqIwK-4">
                    <mxGeometry y="90" width="180" height="30" as="geometry"/>
                </mxCell>
                <mxCell id="wxnNnvaobZzjYoxUqIwK-12" value="" style="shape=partialRectangle;connectable=0;fillColor=none;top=0;left=0;bottom=0;right=0;editable=1;overflow=hidden;fontSize=20;" vertex="1" parent="wxnNnvaobZzjYoxUqIwK-11">
                    <mxGeometry width="30" height="30" as="geometry">
                        <mxRectangle width="30" height="30" as="alternateBounds"/>
                    </mxGeometry>
                </mxCell>
                <mxCell id="wxnNnvaobZzjYoxUqIwK-13" value="이름" style="shape=partialRectangle;connectable=0;fillColor=none;top=0;left=0;bottom=0;right=0;align=left;spacingLeft=6;overflow=hidden;fontSize=20;" vertex="1" parent="wxnNnvaobZzjYoxUqIwK-11">
                    <mxGeometry x="30" width="150" height="30" as="geometry">
                        <mxRectangle width="150" height="30" as="alternateBounds"/>
                    </mxGeometry>
                </mxCell>
                <mxCell id="wxnNnvaobZzjYoxUqIwK-14" value="" style="shape=tableRow;horizontal=0;startSize=0;swimlaneHead=0;swimlaneBody=0;fillColor=none;collapsible=0;dropTarget=0;points=[[0,0.5],[1,0.5]];portConstraint=eastwest;top=0;left=0;right=0;bottom=0;fontSize=20;" vertex="1" parent="wxnNnvaobZzjYoxUqIwK-4">
                    <mxGeometry y="120" width="180" height="30" as="geometry"/>
                </mxCell>
                <mxCell id="wxnNnvaobZzjYoxUqIwK-15" value="" style="shape=partialRectangle;connectable=0;fillColor=none;top=0;left=0;bottom=0;right=0;editable=1;overflow=hidden;fontSize=20;" vertex="1" parent="wxnNnvaobZzjYoxUqIwK-14">
                    <mxGeometry width="30" height="30" as="geometry">
                        <mxRectangle width="30" height="30" as="alternateBounds"/>
                    </mxGeometry>
                </mxCell>
                <mxCell id="wxnNnvaobZzjYoxUqIwK-16" value="나이" style="shape=partialRectangle;connectable=0;fillColor=none;top=0;left=0;bottom=0;right=0;align=left;spacingLeft=6;overflow=hidden;fontSize=20;" vertex="1" parent="wxnNnvaobZzjYoxUqIwK-14">
                    <mxGeometry x="30" width="150" height="30" as="geometry">
                        <mxRectangle width="150" height="30" as="alternateBounds"/>
                    </mxGeometry>
                </mxCell>
                <mxCell id="wxnNnvaobZzjYoxUqIwK-17" value="" style="shape=tableRow;horizontal=0;startSize=0;swimlaneHead=0;swimlaneBody=0;fillColor=none;collapsible=0;dropTarget=0;points=[[0,0.5],[1,0.5]];portConstraint=eastwest;top=0;left=0;right=0;bottom=0;fontSize=20;" vertex="1" parent="wxnNnvaobZzjYoxUqIwK-4">
                    <mxGeometry y="150" width="180" height="30" as="geometry"/>
                </mxCell>
                <mxCell id="wxnNnvaobZzjYoxUqIwK-18" value="" style="shape=partialRectangle;connectable=0;fillColor=none;top=0;left=0;bottom=0;right=0;editable=1;overflow=hidden;fontSize=20;" vertex="1" parent="wxnNnvaobZzjYoxUqIwK-17">
                    <mxGeometry width="30" height="30" as="geometry">
                        <mxRectangle width="30" height="30" as="alternateBounds"/>
                    </mxGeometry>
                </mxCell>
                <mxCell id="wxnNnvaobZzjYoxUqIwK-19" value="직업" style="shape=partialRectangle;connectable=0;fillColor=none;top=0;left=0;bottom=0;right=0;align=left;spacingLeft=6;overflow=hidden;fontSize=20;" vertex="1" parent="wxnNnvaobZzjYoxUqIwK-17">
                    <mxGeometry x="30" width="150" height="30" as="geometry">
                        <mxRectangle width="150" height="30" as="alternateBounds"/>
                    </mxGeometry>
                </mxCell>
                <mxCell id="-i7HIc95rXMINyrdtggU-1" value="" style="shape=tableRow;horizontal=0;startSize=0;swimlaneHead=0;swimlaneBody=0;fillColor=none;collapsible=0;dropTarget=0;points=[[0,0.5],[1,0.5]];portConstraint=eastwest;top=0;left=0;right=0;bottom=0;fontSize=20;" vertex="1" parent="wxnNnvaobZzjYoxUqIwK-4">
                    <mxGeometry y="180" width="180" height="30" as="geometry"/>
                </mxCell>
                <mxCell id="-i7HIc95rXMINyrdtggU-2" value="" style="shape=partialRectangle;connectable=0;fillColor=none;top=0;left=0;bottom=0;right=0;editable=1;overflow=hidden;fontSize=20;" vertex="1" parent="-i7HIc95rXMINyrdtggU-1">
                    <mxGeometry width="30" height="30" as="geometry">
                        <mxRectangle width="30" height="30" as="alternateBounds"/>
                    </mxGeometry>
                </mxCell>
                <mxCell id="-i7HIc95rXMINyrdtggU-3" value="등급" style="shape=partialRectangle;connectable=0;fillColor=none;top=0;left=0;bottom=0;right=0;align=left;spacingLeft=6;overflow=hidden;fontSize=20;" vertex="1" parent="-i7HIc95rXMINyrdtggU-1">
                    <mxGeometry x="30" width="150" height="30" as="geometry">
                        <mxRectangle width="150" height="30" as="alternateBounds"/>
                    </mxGeometry>
                </mxCell>
                <mxCell id="-i7HIc95rXMINyrdtggU-4" value="" style="shape=tableRow;horizontal=0;startSize=0;swimlaneHead=0;swimlaneBody=0;fillColor=none;collapsible=0;dropTarget=0;points=[[0,0.5],[1,0.5]];portConstraint=eastwest;top=0;left=0;right=0;bottom=0;fontSize=20;" vertex="1" parent="wxnNnvaobZzjYoxUqIwK-4">
                    <mxGeometry y="210" width="180" height="30" as="geometry"/>
                </mxCell>
                <mxCell id="-i7HIc95rXMINyrdtggU-5" value="" style="shape=partialRectangle;connectable=0;fillColor=none;top=0;left=0;bottom=0;right=0;editable=1;overflow=hidden;fontSize=20;" vertex="1" parent="-i7HIc95rXMINyrdtggU-4">
                    <mxGeometry width="30" height="30" as="geometry">
                        <mxRectangle width="30" height="30" as="alternateBounds"/>
                    </mxGeometry>
                </mxCell>
                <mxCell id="-i7HIc95rXMINyrdtggU-6" value="정립금" style="shape=partialRectangle;connectable=0;fillColor=none;top=0;left=0;bottom=0;right=0;align=left;spacingLeft=6;overflow=hidden;fontSize=20;" vertex="1" parent="-i7HIc95rXMINyrdtggU-4">
                    <mxGeometry x="30" width="150" height="30" as="geometry">
                        <mxRectangle width="150" height="30" as="alternateBounds"/>
                    </mxGeometry>
                </mxCell>
                <mxCell id="GjqVeFv8JzNLS1Nz9_6Z-1" value="게시글" style="shape=table;startSize=30;container=1;collapsible=1;childLayout=tableLayout;fixedRows=1;rowLines=0;fontStyle=1;align=center;resizeLast=1;fontSize=20;" vertex="1" parent="1">
                    <mxGeometry x="80" y="450" width="180" height="180" as="geometry"/>
                </mxCell>
                <mxCell id="GjqVeFv8JzNLS1Nz9_6Z-2" value="" style="shape=tableRow;horizontal=0;startSize=0;swimlaneHead=0;swimlaneBody=0;fillColor=none;collapsible=0;dropTarget=0;points=[[0,0.5],[1,0.5]];portConstraint=eastwest;top=0;left=0;right=0;bottom=1;fontSize=20;" vertex="1" parent="GjqVeFv8JzNLS1Nz9_6Z-1">
                    <mxGeometry y="30" width="180" height="30" as="geometry"/>
                </mxCell>
                <mxCell id="GjqVeFv8JzNLS1Nz9_6Z-3" value="PK" style="shape=partialRectangle;connectable=0;fillColor=none;top=0;left=0;bottom=0;right=0;fontStyle=1;overflow=hidden;fontSize=20;" vertex="1" parent="GjqVeFv8JzNLS1Nz9_6Z-2">
                    <mxGeometry width="30" height="30" as="geometry">
                        <mxRectangle width="30" height="30" as="alternateBounds"/>
                    </mxGeometry>
                </mxCell>
                <mxCell id="GjqVeFv8JzNLS1Nz9_6Z-4" value="글번호" style="shape=partialRectangle;connectable=0;fillColor=none;top=0;left=0;bottom=0;right=0;align=left;spacingLeft=6;fontStyle=5;overflow=hidden;fontSize=20;" vertex="1" parent="GjqVeFv8JzNLS1Nz9_6Z-2">
                    <mxGeometry x="30" width="150" height="30" as="geometry">
                        <mxRectangle width="150" height="30" as="alternateBounds"/>
                    </mxGeometry>
                </mxCell>
                <mxCell id="GjqVeFv8JzNLS1Nz9_6Z-23" value="" style="shape=tableRow;horizontal=0;startSize=0;swimlaneHead=0;swimlaneBody=0;fillColor=none;collapsible=0;dropTarget=0;points=[[0,0.5],[1,0.5]];portConstraint=eastwest;top=0;left=0;right=0;bottom=1;fontSize=20;" vertex="1" parent="GjqVeFv8JzNLS1Nz9_6Z-1">
                    <mxGeometry y="60" width="180" height="30" as="geometry"/>
                </mxCell>
                <mxCell id="GjqVeFv8JzNLS1Nz9_6Z-24" value="FK" style="shape=partialRectangle;connectable=0;fillColor=none;top=0;left=0;bottom=0;right=0;fontStyle=1;overflow=hidden;fontSize=20;" vertex="1" parent="GjqVeFv8JzNLS1Nz9_6Z-23">
                    <mxGeometry width="30" height="30" as="geometry">
                        <mxRectangle width="30" height="30" as="alternateBounds"/>
                    </mxGeometry>
                </mxCell>
                <mxCell id="GjqVeFv8JzNLS1Nz9_6Z-25" value="회원아이디" style="shape=partialRectangle;connectable=0;fillColor=none;top=0;left=0;bottom=0;right=0;align=left;spacingLeft=6;fontStyle=5;overflow=hidden;fontSize=20;" vertex="1" parent="GjqVeFv8JzNLS1Nz9_6Z-23">
                    <mxGeometry x="30" width="150" height="30" as="geometry">
                        <mxRectangle width="150" height="30" as="alternateBounds"/>
                    </mxGeometry>
                </mxCell>
                <mxCell id="GjqVeFv8JzNLS1Nz9_6Z-5" value="" style="shape=tableRow;horizontal=0;startSize=0;swimlaneHead=0;swimlaneBody=0;fillColor=none;collapsible=0;dropTarget=0;points=[[0,0.5],[1,0.5]];portConstraint=eastwest;top=0;left=0;right=0;bottom=0;fontSize=20;" vertex="1" parent="GjqVeFv8JzNLS1Nz9_6Z-1">
                    <mxGeometry y="90" width="180" height="30" as="geometry"/>
                </mxCell>
                <mxCell id="GjqVeFv8JzNLS1Nz9_6Z-6" value="" style="shape=partialRectangle;connectable=0;fillColor=none;top=0;left=0;bottom=0;right=0;editable=1;overflow=hidden;fontSize=20;" vertex="1" parent="GjqVeFv8JzNLS1Nz9_6Z-5">
                    <mxGeometry width="30" height="30" as="geometry">
                        <mxRectangle width="30" height="30" as="alternateBounds"/>
                    </mxGeometry>
                </mxCell>
                <mxCell id="GjqVeFv8JzNLS1Nz9_6Z-7" value="제목" style="shape=partialRectangle;connectable=0;fillColor=none;top=0;left=0;bottom=0;right=0;align=left;spacingLeft=6;overflow=hidden;fontSize=20;" vertex="1" parent="GjqVeFv8JzNLS1Nz9_6Z-5">
                    <mxGeometry x="30" width="150" height="30" as="geometry">
                        <mxRectangle width="150" height="30" as="alternateBounds"/>
                    </mxGeometry>
                </mxCell>
                <mxCell id="GjqVeFv8JzNLS1Nz9_6Z-8" value="" style="shape=tableRow;horizontal=0;startSize=0;swimlaneHead=0;swimlaneBody=0;fillColor=none;collapsible=0;dropTarget=0;points=[[0,0.5],[1,0.5]];portConstraint=eastwest;top=0;left=0;right=0;bottom=0;fontSize=20;" vertex="1" parent="GjqVeFv8JzNLS1Nz9_6Z-1">
                    <mxGeometry y="120" width="180" height="30" as="geometry"/>
                </mxCell>
                <mxCell id="GjqVeFv8JzNLS1Nz9_6Z-9" value="" style="shape=partialRectangle;connectable=0;fillColor=none;top=0;left=0;bottom=0;right=0;editable=1;overflow=hidden;fontSize=20;" vertex="1" parent="GjqVeFv8JzNLS1Nz9_6Z-8">
                    <mxGeometry width="30" height="30" as="geometry">
                        <mxRectangle width="30" height="30" as="alternateBounds"/>
                    </mxGeometry>
                </mxCell>
                <mxCell id="GjqVeFv8JzNLS1Nz9_6Z-10" value="내용" style="shape=partialRectangle;connectable=0;fillColor=none;top=0;left=0;bottom=0;right=0;align=left;spacingLeft=6;overflow=hidden;fontSize=20;" vertex="1" parent="GjqVeFv8JzNLS1Nz9_6Z-8">
                    <mxGeometry x="30" width="150" height="30" as="geometry">
                        <mxRectangle width="150" height="30" as="alternateBounds"/>
                    </mxGeometry>
                </mxCell>
                <mxCell id="GjqVeFv8JzNLS1Nz9_6Z-11" value="" style="shape=tableRow;horizontal=0;startSize=0;swimlaneHead=0;swimlaneBody=0;fillColor=none;collapsible=0;dropTarget=0;points=[[0,0.5],[1,0.5]];portConstraint=eastwest;top=0;left=0;right=0;bottom=0;fontSize=20;" vertex="1" parent="GjqVeFv8JzNLS1Nz9_6Z-1">
                    <mxGeometry y="150" width="180" height="30" as="geometry"/>
                </mxCell>
                <mxCell id="GjqVeFv8JzNLS1Nz9_6Z-12" value="" style="shape=partialRectangle;connectable=0;fillColor=none;top=0;left=0;bottom=0;right=0;editable=1;overflow=hidden;fontSize=20;" vertex="1" parent="GjqVeFv8JzNLS1Nz9_6Z-11">
                    <mxGeometry width="30" height="30" as="geometry">
                        <mxRectangle width="30" height="30" as="alternateBounds"/>
                    </mxGeometry>
                </mxCell>
                <mxCell id="GjqVeFv8JzNLS1Nz9_6Z-13" value="작성일" style="shape=partialRectangle;connectable=0;fillColor=none;top=0;left=0;bottom=0;right=0;align=left;spacingLeft=6;overflow=hidden;fontSize=20;" vertex="1" parent="GjqVeFv8JzNLS1Nz9_6Z-11">
                    <mxGeometry x="30" width="150" height="30" as="geometry">
                        <mxRectangle width="150" height="30" as="alternateBounds"/>
                    </mxGeometry>
                </mxCell>
                <mxCell id="GjqVeFv8JzNLS1Nz9_6Z-22" value="" style="edgeStyle=entityRelationEdgeStyle;fontSize=12;html=1;endArrow=ERoneToMany;entryX=1;entryY=0.5;entryDx=0;entryDy=0;exitX=1;exitY=0.5;exitDx=0;exitDy=0;" edge="1" parent="1" source="mzwiKnHIS2N00SebCTAr-2" target="GjqVeFv8JzNLS1Nz9_6Z-15">
                    <mxGeometry width="100" height="100" relative="1" as="geometry">
                        <mxPoint x="370" y="440" as="sourcePoint"/>
                        <mxPoint x="470" y="340" as="targetPoint"/>
                    </mxGeometry>
                </mxCell>
                <mxCell id="GjqVeFv8JzNLS1Nz9_6Z-29" value="" style="edgeStyle=entityRelationEdgeStyle;fontSize=12;html=1;endArrow=ERoneToMany;startArrow=ERzeroToOne;entryX=1;entryY=0.5;entryDx=0;entryDy=0;" edge="1" parent="1" target="GjqVeFv8JzNLS1Nz9_6Z-23">
                    <mxGeometry width="100" height="100" relative="1" as="geometry">
                        <mxPoint x="260" y="90" as="sourcePoint"/>
                        <mxPoint x="470" y="340" as="targetPoint"/>
                    </mxGeometry>
                </mxCell>
                <mxCell id="GjqVeFv8JzNLS1Nz9_6Z-30" value="회원 : 게시글&#10;(1 : N)&#10;N쪽에 외래키 표현 &#10;회원 선택적 참여&#10;게시글 필수적 참여&#10;" style="text;strokeColor=none;fillColor=none;spacingLeft=4;spacingRight=4;overflow=hidden;rotatable=0;points=[[0,0.5],[1,0.5]];portConstraint=eastwest;fontSize=14;align=center;fontStyle=1" vertex="1" parent="1">
                    <mxGeometry x="90" y="310" width="140" height="90" as="geometry"/>
                </mxCell>
                <mxCell id="GjqVeFv8JzNLS1Nz9_6Z-31" value="회원 : 상품&#10;(M : N)&#10;테이블로 표현&#10;" style="text;strokeColor=none;fillColor=none;spacingLeft=4;spacingRight=4;overflow=hidden;rotatable=0;points=[[0,0.5],[1,0.5]];portConstraint=eastwest;fontSize=14;align=center;fontStyle=1" vertex="1" parent="1">
                    <mxGeometry x="360" y="280" width="140" height="90" as="geometry"/>
                </mxCell>
                <mxCell id="GjqVeFv8JzNLS1Nz9_6Z-33" value="주문" style="shape=table;startSize=30;container=1;collapsible=1;childLayout=tableLayout;fixedRows=1;rowLines=0;fontStyle=1;align=center;resizeLast=1;fontSize=20;" vertex="1" parent="1">
                    <mxGeometry x="330" y="55" width="180" height="210" as="geometry"/>
                </mxCell>
                <mxCell id="GjqVeFv8JzNLS1Nz9_6Z-34" value="" style="shape=tableRow;horizontal=0;startSize=0;swimlaneHead=0;swimlaneBody=0;fillColor=none;collapsible=0;dropTarget=0;points=[[0,0.5],[1,0.5]];portConstraint=eastwest;top=0;left=0;right=0;bottom=1;fontSize=14;" vertex="1" parent="GjqVeFv8JzNLS1Nz9_6Z-33">
                    <mxGeometry y="30" width="180" height="30" as="geometry"/>
                </mxCell>
                <mxCell id="GjqVeFv8JzNLS1Nz9_6Z-35" value="PK" style="shape=partialRectangle;connectable=0;fillColor=none;top=0;left=0;bottom=0;right=0;fontStyle=1;overflow=hidden;fontSize=20;" vertex="1" parent="GjqVeFv8JzNLS1Nz9_6Z-34">
                    <mxGeometry width="30" height="30" as="geometry">
                        <mxRectangle width="30" height="30" as="alternateBounds"/>
                    </mxGeometry>
                </mxCell>
                <mxCell id="GjqVeFv8JzNLS1Nz9_6Z-36" value="주문번호" style="shape=partialRectangle;connectable=0;fillColor=none;top=0;left=0;bottom=0;right=0;align=left;spacingLeft=6;fontStyle=5;overflow=hidden;fontSize=20;" vertex="1" parent="GjqVeFv8JzNLS1Nz9_6Z-34">
                    <mxGeometry x="30" width="150" height="30" as="geometry">
                        <mxRectangle width="150" height="30" as="alternateBounds"/>
                    </mxGeometry>
                </mxCell>
                <mxCell id="GjqVeFv8JzNLS1Nz9_6Z-46" value="" style="shape=tableRow;horizontal=0;startSize=0;swimlaneHead=0;swimlaneBody=0;fillColor=none;collapsible=0;dropTarget=0;points=[[0,0.5],[1,0.5]];portConstraint=eastwest;top=0;left=0;right=0;bottom=1;fontSize=14;" vertex="1" parent="GjqVeFv8JzNLS1Nz9_6Z-33">
                    <mxGeometry y="60" width="180" height="30" as="geometry"/>
                </mxCell>
                <mxCell id="GjqVeFv8JzNLS1Nz9_6Z-47" value="FK" style="shape=partialRectangle;connectable=0;fillColor=none;top=0;left=0;bottom=0;right=0;fontStyle=1;overflow=hidden;fontSize=20;" vertex="1" parent="GjqVeFv8JzNLS1Nz9_6Z-46">
                    <mxGeometry width="30" height="30" as="geometry">
                        <mxRectangle width="30" height="30" as="alternateBounds"/>
                    </mxGeometry>
                </mxCell>
                <mxCell id="GjqVeFv8JzNLS1Nz9_6Z-48" value="상품번호" style="shape=partialRectangle;connectable=0;fillColor=none;top=0;left=0;bottom=0;right=0;align=left;spacingLeft=6;fontStyle=5;overflow=hidden;fontSize=20;" vertex="1" parent="GjqVeFv8JzNLS1Nz9_6Z-46">
                    <mxGeometry x="30" width="150" height="30" as="geometry">
                        <mxRectangle width="150" height="30" as="alternateBounds"/>
                    </mxGeometry>
                </mxCell>
                <mxCell id="GjqVeFv8JzNLS1Nz9_6Z-49" value="" style="shape=tableRow;horizontal=0;startSize=0;swimlaneHead=0;swimlaneBody=0;fillColor=none;collapsible=0;dropTarget=0;points=[[0,0.5],[1,0.5]];portConstraint=eastwest;top=0;left=0;right=0;bottom=1;fontSize=14;" vertex="1" parent="GjqVeFv8JzNLS1Nz9_6Z-33">
                    <mxGeometry y="90" width="180" height="30" as="geometry"/>
                </mxCell>
                <mxCell id="GjqVeFv8JzNLS1Nz9_6Z-50" value="FK" style="shape=partialRectangle;connectable=0;fillColor=none;top=0;left=0;bottom=0;right=0;fontStyle=1;overflow=hidden;fontSize=20;" vertex="1" parent="GjqVeFv8JzNLS1Nz9_6Z-49">
                    <mxGeometry width="30" height="30" as="geometry">
                        <mxRectangle width="30" height="30" as="alternateBounds"/>
                    </mxGeometry>
                </mxCell>
                <mxCell id="GjqVeFv8JzNLS1Nz9_6Z-51" value="회원아이디" style="shape=partialRectangle;connectable=0;fillColor=none;top=0;left=0;bottom=0;right=0;align=left;spacingLeft=6;fontStyle=5;overflow=hidden;fontSize=20;" vertex="1" parent="GjqVeFv8JzNLS1Nz9_6Z-49">
                    <mxGeometry x="30" width="150" height="30" as="geometry">
                        <mxRectangle width="150" height="30" as="alternateBounds"/>
                    </mxGeometry>
                </mxCell>
                <mxCell id="GjqVeFv8JzNLS1Nz9_6Z-37" value="" style="shape=tableRow;horizontal=0;startSize=0;swimlaneHead=0;swimlaneBody=0;fillColor=none;collapsible=0;dropTarget=0;points=[[0,0.5],[1,0.5]];portConstraint=eastwest;top=0;left=0;right=0;bottom=0;fontSize=14;" vertex="1" parent="GjqVeFv8JzNLS1Nz9_6Z-33">
                    <mxGeometry y="120" width="180" height="30" as="geometry"/>
                </mxCell>
                <mxCell id="GjqVeFv8JzNLS1Nz9_6Z-38" value="" style="shape=partialRectangle;connectable=0;fillColor=none;top=0;left=0;bottom=0;right=0;editable=1;overflow=hidden;fontSize=14;" vertex="1" parent="GjqVeFv8JzNLS1Nz9_6Z-37">
                    <mxGeometry width="30" height="30" as="geometry">
                        <mxRectangle width="30" height="30" as="alternateBounds"/>
                    </mxGeometry>
                </mxCell>
                <mxCell id="GjqVeFv8JzNLS1Nz9_6Z-39" value="주문수량" style="shape=partialRectangle;connectable=0;fillColor=none;top=0;left=0;bottom=0;right=0;align=left;spacingLeft=6;overflow=hidden;fontSize=20;" vertex="1" parent="GjqVeFv8JzNLS1Nz9_6Z-37">
                    <mxGeometry x="30" width="150" height="30" as="geometry">
                        <mxRectangle width="150" height="30" as="alternateBounds"/>
                    </mxGeometry>
                </mxCell>
                <mxCell id="GjqVeFv8JzNLS1Nz9_6Z-40" value="" style="shape=tableRow;horizontal=0;startSize=0;swimlaneHead=0;swimlaneBody=0;fillColor=none;collapsible=0;dropTarget=0;points=[[0,0.5],[1,0.5]];portConstraint=eastwest;top=0;left=0;right=0;bottom=0;fontSize=14;" vertex="1" parent="GjqVeFv8JzNLS1Nz9_6Z-33">
                    <mxGeometry y="150" width="180" height="30" as="geometry"/>
                </mxCell>
                <mxCell id="GjqVeFv8JzNLS1Nz9_6Z-41" value="" style="shape=partialRectangle;connectable=0;fillColor=none;top=0;left=0;bottom=0;right=0;editable=1;overflow=hidden;fontSize=14;" vertex="1" parent="GjqVeFv8JzNLS1Nz9_6Z-40">
                    <mxGeometry width="30" height="30" as="geometry">
                        <mxRectangle width="30" height="30" as="alternateBounds"/>
                    </mxGeometry>
                </mxCell>
                <mxCell id="GjqVeFv8JzNLS1Nz9_6Z-42" value="배송지" style="shape=partialRectangle;connectable=0;fillColor=none;top=0;left=0;bottom=0;right=0;align=left;spacingLeft=6;overflow=hidden;fontSize=20;" vertex="1" parent="GjqVeFv8JzNLS1Nz9_6Z-40">
                    <mxGeometry x="30" width="150" height="30" as="geometry">
                        <mxRectangle width="150" height="30" as="alternateBounds"/>
                    </mxGeometry>
                </mxCell>
                <mxCell id="GjqVeFv8JzNLS1Nz9_6Z-43" value="" style="shape=tableRow;horizontal=0;startSize=0;swimlaneHead=0;swimlaneBody=0;fillColor=none;collapsible=0;dropTarget=0;points=[[0,0.5],[1,0.5]];portConstraint=eastwest;top=0;left=0;right=0;bottom=0;fontSize=14;" vertex="1" parent="GjqVeFv8JzNLS1Nz9_6Z-33">
                    <mxGeometry y="180" width="180" height="30" as="geometry"/>
                </mxCell>
                <mxCell id="GjqVeFv8JzNLS1Nz9_6Z-44" value="" style="shape=partialRectangle;connectable=0;fillColor=none;top=0;left=0;bottom=0;right=0;editable=1;overflow=hidden;fontSize=14;" vertex="1" parent="GjqVeFv8JzNLS1Nz9_6Z-43">
                    <mxGeometry width="30" height="30" as="geometry">
                        <mxRectangle width="30" height="30" as="alternateBounds"/>
                    </mxGeometry>
                </mxCell>
                <mxCell id="GjqVeFv8JzNLS1Nz9_6Z-45" value="주문일자" style="shape=partialRectangle;connectable=0;fillColor=none;top=0;left=0;bottom=0;right=0;align=left;spacingLeft=6;overflow=hidden;fontSize=20;" vertex="1" parent="GjqVeFv8JzNLS1Nz9_6Z-43">
                    <mxGeometry x="30" width="150" height="30" as="geometry">
                        <mxRectangle width="150" height="30" as="alternateBounds"/>
                    </mxGeometry>
                </mxCell>
                <mxCell id="GjqVeFv8JzNLS1Nz9_6Z-53" value="" style="edgeStyle=entityRelationEdgeStyle;fontSize=12;html=1;endArrow=ERoneToMany;exitX=1.006;exitY=0.3;exitDx=0;exitDy=0;exitPerimeter=0;entryX=0;entryY=0.5;entryDx=0;entryDy=0;" edge="1" parent="1" source="wxnNnvaobZzjYoxUqIwK-5" target="GjqVeFv8JzNLS1Nz9_6Z-49">
                    <mxGeometry width="100" height="100" relative="1" as="geometry">
                        <mxPoint x="370" y="420" as="sourcePoint"/>
                        <mxPoint x="470" y="320" as="targetPoint"/>
                    </mxGeometry>
                </mxCell>
                <mxCell id="GjqVeFv8JzNLS1Nz9_6Z-54" value="" style="edgeStyle=entityRelationEdgeStyle;fontSize=12;html=1;endArrow=ERoneToMany;exitX=0;exitY=0.5;exitDx=0;exitDy=0;entryX=1;entryY=0.5;entryDx=0;entryDy=0;" edge="1" parent="1" source="VZXPq15NsztpYanEYZGU-2" target="GjqVeFv8JzNLS1Nz9_6Z-46">
                    <mxGeometry width="100" height="100" relative="1" as="geometry">
                        <mxPoint x="271.0799999999999" y="89" as="sourcePoint"/>
                        <mxPoint x="340" y="170" as="targetPoint"/>
                    </mxGeometry>
                </mxCell>
            </root>
        </mxGraphModel>
    </diagram>
</mxfile>